P3
# .ppm file: new_map.ppm
20 15
255
    0   0   0    0   0   0    0   0   0    0   0   0    0   0   0    0   0   0    0   0   0    0   0   0    0   0   0    0   0   0    0   0   0    0   0   0    0   0   0    0   0   0    0   0   0    0   0   0    0   0   0    0   0   0    0   0   0    0   0   0
    0   0   0  255 255 255  255 255 255  255 255 255  255 255 255  255 255 255  255 255 255  255 255 255  255 255 255  255 255 255  255 255 255  255 255 255  255 255 255  255 255 255  255 255 255  255 255 255  255 255 255  255 255 255  255 255 255    0   0   0
    0   0   0  255 255 255  255 255 255  255 255 255   99  99  99   99  99  99   99  99  99   99  99  99   99  99  99   99  99  99   99  99  99   99  99  99   99  99  99   99  99  99   99  99  99  255 255 255  255 255 255  255 255 255  255 255 255    0   0   0
    0   0   0  255 255 255  255 255 255  255 255 255  255 255 255  255 255 255  255 255 255  255 255 255  255 255 255  255 255 255  255 255 255  255 255 255  255 255 255  255 255 255   99  99  99   99  99  99   99  99  99   99  99  99   99  99  99    0   0   0
    0   0   0   99  99  99   99  99  99   99  99  99   99  99  99   99  99  99   99  99  99   99  99  99   99  99  99   99  99  99  255 255 255  255 255 255  255 255 255  255 255 255   99  99  99   99  99  99   99  99  99  255 255 255  255 255 255    0   0   0
    0   0   0  255 255 255  255 255 255  255 255 255  255 255 255  255 255 255  255 255 255  255 255 255  255 255 255  255 255 255  255 255 255  255 255 255   99  99  99   99  99  99   99  99  99  255 255 255  255 255 255  255 255 255  255 255 255    0   0   0
    0   0   0  255 255 255   99  99  99   99  99  99   99  99  99   99  99  99   99  99  99   99  99  99   99  99  99   99  99  99   99  99  99  255 255 255  255 255 255  255 255 255  255 255 255  255 255 255  255 255 255  255 255 255  255 255 255    0   0   0
    0   0   0  255 255 255   99  99  99   99  99  99   99  99  99   99  99  99   99  99  99   99  99  99   99  99  99   99  99  99   99  99  99  255 255 255  255 255 255  255 255 255  255 255 255  255 255 255  255 255 255  255 255 255  255 255 255    0   0   0
    0   0   0  255 255 255   99  99  99   99  99  99   99  99  99   99  99  99   99  99  99   99  99  99   99  99  99   99  99  99   99  99  99  255 255 255  255 255 255  255 255 255  255 255 255  255 255 255  255 255 255  255 255 255  255 255 255    0   0   0
    0   0   0  255 255 255  255 255 255  255 255 255  255 255 255  255 255 255  255 255 255  255 255 255  255 255 255   99  99  99   99  99  99  255 255 255  255 255 255  255 255 255  255 255 255  255 255 255  255 255 255  255 255 255  255 255 255    0   0   0
    0   0   0   99  99  99   99  99  99   99  99  99   99  99  99   99  99  99   99  99  99   99  99  99  255 255 255   99  99  99   99  99  99  255 255 255   99  99  99   99  99  99   99  99  99   99  99  99  255 255 255   99  99  99   99  99  99    0   0   0
    0   0   0  255 255 255  255 255 255  255 255 255  255 255 255  255 255 255  255 255 255  255 255 255  255 255 255  255 255 255   99  99  99  255 255 255   99  99  99   99  99  99   99  99  99   99  99  99  255 255 255  255 255 255  255 255 255    0   0   0
    0   0   0  255 255 255  255 255 255  255 255 255  255 255 255  255 255 255  255 255 255  255 255 255  255 255 255  255 255 255   99  99  99  255 255 255   99  99  99   99  99  99   99  99  99   99  99  99   99  99  99   99  99  99  255 255 255    0   0   0
    0   0   0  255 255 255  255 255 255  255 255 255  255 255 255  255 255 255  255 255 255  255 255 255  255 255 255  255 255 255   99  99  99  255 255 255  255 255 255  255 255 255  255 255 255  255 255 255  255 255 255  255 255 255  255 255 255    0   0   0
    0   0   0    0   0   0    0   0   0    0   0   0    0   0   0    0   0   0    0   0   0    0   0   0    0   0   0    0   0   0    0   0   0    0   0   0    0   0   0    0   0   0    0   0   0    0   0   0    0   0   0    0   0   0    0   0   0    0   0   0
