P3
# .ppm file: map.ppm
20 15
255
    0   0   0    0   0   0    0   0   0    0   0   0    0   0   0    0   0   0    0   0   0    0   0   0    0   0   0    0   0   0    0   0   0    0   0   0    0   0   0    0   0   0    0   0   0    0   0   0    0   0   0    0   0   0    0   0   0    0   0   0
    0   0   0  255 255 255  255 255 255  255 255 255  255 255 255  255 255 255  255 255 255  255 255 255  255 255 255  255 255 255  255 255 255  255 255 255  255 255 255  255 255 255  255 255 255  255 255 255  255 255 255  255 255 255  255 255 255    0   0   0
    0   0   0  255 255 255  255 255 255  255 255 255   99  99  99   99  99  99   99  99  99   99  99  99   99  99  99   99  99  99   99  99  99   99  99  99   99  99  99   99  99  99   99  99  99  255 255 255  255 255 255  255 255 255  255 255 255    0   0   0
    0   0   0  255 255 255  255 255 255  255 255 255  255 255 255  255 255 255  255 255 255  255 255 255  255 255 255  255 255 255  255 255 255  255 255 255  255 255 255  255 255 255   99  99  99   99  99  99   99  99  99   99  99  99   99  99  99    0   0   0
    0   0   0   99  99  99   99  99  99   99  99  99   99  99  99   99  99  99   99  99  99   99  99  99   99  99  99   99  99  99  255 255 255  255 255 255  255 255 255  255 255 255   99  99  99   99  99  99   99  99  99  255 255 255  255 255 255    0   0   0
    0   0   0    0 255   0    0 252   0    0 231  21    0 210  42    0 189  63    0 168  84    0 147 105    0 126 126    0 105 147    0  84 168    0  63 189   99  99  99   99  99  99   99  99  99  255 255 255  255 255 255  255 255 255  255 255 255    0   0   0
    0   0   0  255 255 255   99  99  99   99  99  99   99  99  99   99  99  99   99  99  99   99  99  99   99  99  99   99  99  99   99  99  99    0  42 210  255 255 255  255 255 255  255 255 255  255 255 255  255 255 255  255 255 255  255 255 255    0   0   0
    0   0   0  255 255 255   99  99  99   99  99  99   99  99  99   99  99  99   99  99  99   99  99  99   99  99  99   99  99  99   99  99  99    0  21 231  255 255 255  255 255 255  255 255 255  255 255 255  255 255 255  255 255 255  255 255 255    0   0   0
    0   0   0  255 255 255   99  99  99   99  99  99   99  99  99   99  99  99   99  99  99   99  99  99   99  99  99   99  99  99   99  99  99    0   0 252  255 255 255  255 255 255  255 255 255  255 255 255  255 255 255  255 255 255  255 255 255    0   0   0
    0   0   0  255 255 255  255 255 255  255 255 255  255 255 255  255 255 255  255 255 255  255 255 255  255 255 255   99  99  99   99  99  99   21   0 231  255 255 255  255 255 255  255 255 255  255 255 255  255 255 255  255 255 255  255 255 255    0   0   0
    0   0   0   99  99  99   99  99  99   99  99  99   99  99  99   99  99  99   99  99  99   99  99  99  255 255 255   99  99  99   99  99  99   42   0 210   99  99  99   99  99  99   99  99  99   99  99  99  255 255 255   99  99  99   99  99  99    0   0   0
    0   0   0  255 255 255  255 255 255  255 255 255  255 255 255  255 255 255  255 255 255  255 255 255  255 255 255  255 255 255   99  99  99   63   0 189   99  99  99   99  99  99   99  99  99   99  99  99  255 255 255  255 255 255  255 255 255    0   0   0
    0   0   0  255 255 255  255 255 255  255 255 255  255 255 255  255 255 255  255 255 255  255 255 255  255 255 255  255 255 255   99  99  99   84   0 168   99  99  99   99  99  99   99  99  99   99  99  99   99  99  99   99  99  99  255 255 255    0   0   0
    0   0   0  255 255 255  255 255 255  255 255 255  255 255 255  255 255 255  255 255 255  255 255 255  255 255 255  255 255 255   99  99  99  105   0 147  126   0 126  147   0 105  168   0  84  189   0  63  210   0  42  231   0  21  255   0   0    0   0   0
    0   0   0    0   0   0    0   0   0    0   0   0    0   0   0    0   0   0    0   0   0    0   0   0    0   0   0    0   0   0    0   0   0    0   0   0    0   0   0    0   0   0    0   0   0    0   0   0    0   0   0    0   0   0    0   0   0    0   0   0
