P3
# .ppm file: tough_map.ppm
12 12
255
    0   0   0    0   0   0    0   0   0    0   0   0    0   0   0    0   0   0    0   0   0    0   0   0    0   0   0    0   0   0    0   0   0    0   0   0
    0   0   0  255 255 255  255 255 255  255 255 255  255 255 255  255 255 255  255 255 255  255 255 255  255 255 255  255 255 255  255 255 255    0   0   0
    0   0   0  255 255 255  255 255 255   99  99  99  255 255 255  255 255 255  255 255 255   99  99  99   99  99  99   99  99  99  255 255 255    0   0   0
    0   0   0  255 255 255   99  99  99   99  99  99   99  99  99  255 255 255  255 255 255   99  99  99  255 255 255  255 255 255  255 255 255    0   0   0
    0   0   0  255 255 255   99  99  99   99  99  99   99  99  99   99  99  99  255 255 255   99  99  99   99  99  99   99  99  99  255 255 255    0   0   0
    0   0   0  255 255 255   99  99  99   99  99  99  255 255 255  255 255 255  255 255 255   99  99  99  255 255 255  255 255 255  255 255 255    0   0   0
    0   0   0  255 255 255   99  99  99   99  99  99   99  99  99   99  99  99   99  99  99   99  99  99   99  99  99   99  99  99  255 255 255    0   0   0
    0   0   0  255 255 255   99  99  99   99  99  99   99  99  99   99  99  99   99  99  99   99  99  99  255 255 255  255 255 255  255 255 255    0   0   0
    0   0   0  255 255 255  255 255 255  255 255 255  255 255 255   99  99  99   99  99  99  255 255 255   99  99  99  255 255 255  255 255 255    0   0   0
    0   0   0  255 255 255   99  99  99   99  99  99   99  99  99  255 255 255  255 255 255  255 255 255   99  99  99  255 255 255  255 255 255    0   0   0
    0   0   0  255 255 255  255 255 255  255 255 255  255 255 255  255 255 255   99  99  99  255   0   0   99  99  99    0 255   0  255 255 255    0   0   0
    0   0   0    0   0   0    0   0   0    0   0   0    0   0   0    0   0   0    0   0   0    0   0   0    0   0   0    0   0   0    0   0   0    0   0   0
